<?xml version="1.0" encoding="UTF-8"?>
<!DOCTYPE svg PUBLIC "-//W3C//DTD SVG 1.0//EN" "http://www.w3.org/TR/2001/REC-SVG-20010904/DTD/svg10.dtd">
<!-- Creator: CorelDRAW -->
<svg xmlns="http://www.w3.org/2000/svg" xml:space="preserve" width="150px" height="150px" version="1.0" style="shape-rendering:geometricPrecision; text-rendering:geometricPrecision; image-rendering:optimizeQuality; fill-rule:evenodd; clip-rule:evenodd" viewBox="0 0 150 150">
  <g id="Camada_x0020_1">
    <metadata id="CorelCorpID_0Corel-Layer"/>
    <g id="_1960206658256">
      <path class="fil0" d="M110.9 101.759c1.382,5.933 5.589,31.312 -5.218,31.312 -6.189,0 -10.348,-2.107 -15.015,-5.208 -3.764,-2.501 -6.846,-5.44 -10.427,-7.839l10.755 -13.381c2.296,-2.788 2.156,-1.516 9.66,-2.734 4.06,-0.659 6.748,-1.335 10.245,-2.15zm-73.715 16.308c0,-6.201 0.709,-10.95 1.957,-16.308 3.301,0.769 5.937,1.437 9.687,2.055 10.424,1.718 7.179,-1.081 15.378,9.412 1.993,2.551 3.781,4.089 5.595,6.798 -5.219,3.496 -32.617,29.778 -32.617,-1.957zm30.66 -12.394l14.352 0c-0.602,2.254 -5.019,7.037 -7.176,8.48 -2.769,-1.854 -5.746,-5.759 -7.176,-8.48zm30.661 -9.133zm-46.969 0l46.969 0zm-46.969 0zm46.969 0l-46.969 0zm46.969 0c0.355,-1.524 5.87,-11.438 7.176,-12.394 0.768,3.296 2.945,6.636 3.261,10.437 -2.064,0.991 -7.24,1.957 -10.437,1.957zm-46.969 0c-3.197,0 -8.373,-0.966 -10.438,-1.957 1.306,-5.606 2.527,-7.285 3.262,-10.437 0.594,0.683 0.139,0.107 0.83,1.126l2.882 4.946c1.134,2.038 2.901,4.216 3.464,6.322zm64.582 -39.141c1.008,0.084 44.172,12.97 15.219,28.918 -3.183,1.754 -11.443,5.995 -15.219,6.309l-6.225 -17.63c-0.038,-1.294 2.346,-6.471 3.04,-8.387l3.185 -9.21zm-48.926 -5.871l15.656 0c4.361,0 5.548,0.336 7.347,3.091 2.086,3.194 10.959,17.879 11.241,19.959 0.232,1.714 -2.015,5.303 -2.96,6.929 -1.243,2.137 -2.398,4.432 -3.755,6.684 -7.826,12.99 -3.821,10.306 -30.138,10.306 -3.432,0 -4.028,-2.061 -5.486,-4.3 -1.515,-2.327 -2.597,-3.983 -4.024,-6.413 -9.155,-15.584 -7.8,-10.863 0.805,-26.695 4.399,-8.094 5.176,-9.561 11.314,-9.561zm-33.27 41.098c-4.523,-0.377 -17.074,-6.749 -21.048,-10.264 -8.736,-7.726 -2.414,-13.923 5.41,-18.421 2.947,-1.694 11.87,-6.228 15.638,-6.542 0.646,2.77 1.805,6.051 2.883,8.86 4.362,11.367 4.327,6.213 0.28,17.135 -0.517,1.397 -1.022,2.415 -1.627,4.244 -0.618,1.868 -0.847,3.553 -1.536,4.988zm64.583 -39.141c3.197,0 8.373,0.966 10.437,1.957 -1.306,5.606 -2.527,7.285 -3.261,10.438l-7.176 -12.395zm-46.969 0c-0.232,0.868 -5.904,11.463 -7.176,12.395 -0.768,-3.297 -2.946,-6.637 -3.262,-10.438 2.065,-0.991 7.241,-1.957 10.438,-1.957zm0 0zm23.484 -17.613l-23.484 17.613zm23.484 -17.613c1.889,1.265 6.647,6.499 7.176,8.48l-14.352 0c0.602,-2.253 5.02,-7.036 7.176,-8.48zm5.219 -5.871c5.236,-3.507 32.617,-29.094 32.617,1.957 0,6.202 -0.708,10.951 -1.957,16.308l-14.836 -2.777c-6.291,-0.85 -5.403,-3.648 -13.06,-11.729 -1.266,-1.337 -1.809,-2.334 -2.764,-3.759zm-41.098 18.265c-1.382,-5.933 -5.589,-31.312 5.219,-31.312 11.284,0 17.342,7.623 25.441,13.047l-10.755 13.381c-2.296,2.788 -2.156,1.516 -9.66,2.734 -4.06,0.66 -6.748,1.336 -10.245,2.15zm35.227 -22.832c-3.245,-4.845 -18.805,-15.656 -26.746,-15.656l-3.915 0c-14.804,0 -14.581,21.974 -13.018,33.241 0.352,2.538 1.075,4.791 1.276,7.205 -6.046,2.901 -30.66,9.291 -30.66,24.789 0,12.414 20.901,22.515 30.66,24.789 -0.117,5.287 -6.017,26.354 2.752,35.737 4.091,4.378 7.206,6.105 14.789,4.645 11.653,-2.244 19.206,-10.932 26.167,-15.593 3.522,5.26 19.314,15.656 26.746,15.656 5.866,0 10.232,0.637 14.337,-6.537 5.172,-9.037 3.58,-24.205 1.319,-33.908 15.96,-3.718 47.527,-22.128 19.32,-40.847 -9.114,-6.048 -12.891,-5.647 -19.32,-8.731 0.118,-5.288 6.017,-26.355 -2.751,-35.738 -8.648,-9.254 -19.405,-4.531 -29.085,1.944 -2.204,1.473 -4.095,2.699 -6.102,4.336 -1.137,0.928 -1.564,1.563 -2.693,2.525 -1.004,0.857 -2.073,1.472 -3.076,2.143z"/>
      <path class="fil0" d="M61.322 73.708c0,21.625 27.398,17.744 27.398,2.61 0,-21.395 -27.398,-17.931 -27.398,-2.61z"/>
    </g>
  </g>
</svg>
