<?xml version="1.0" encoding="UTF-8"?>
<!DOCTYPE svg PUBLIC "-//W3C//DTD SVG 1.0//EN" "http://www.w3.org/TR/2001/REC-SVG-20010904/DTD/svg10.dtd">
<!-- Creator: CorelDRAW -->
<svg xmlns="http://www.w3.org/2000/svg" xml:space="preserve" width="300px" height="150px" version="1.0" style="shape-rendering:geometricPrecision; text-rendering:geometricPrecision; image-rendering:optimizeQuality; fill-rule:evenodd; clip-rule:evenodd"
viewBox="0 0 300 150"
 xmlns:xlink="http://www.w3.org/1999/xlink"
 xmlns:xodm="http://www.corel.com/coreldraw/odm/2003">
 <defs>
  <style type="text/css">
   <![CDATA[
    .fil0 {fill:#DB7634}
   ]]>
  </style>
 </defs>
 <g id="Camada_x0020_1">
  <metadata id="CorelCorpID_0Corel-Layer"/>
  <g id="_1960412143152">
   <path class="fil0" d="M22.95 107.555c2.823,0.754 8.907,6.572 30.825,9.344 13.462,1.703 32.242,1.168 44.71,-1.936l10.378 -3.012 9.388 -4.396c0,3.151 -0.008,6.302 0,9.452 0.011,4.368 0.29,5.038 -2.055,7.397 -8.189,8.238 -28.729,11.354 -40.885,11.49 -2.179,0.024 -2.677,0.545 -4.674,0.404 -1.585,-0.112 -2.196,-0.407 -4.359,-0.398 -1.51,0.006 -3.253,0.09 -4.737,0.011 -2.396,-0.128 -5.884,-0.604 -8.445,-1.006 -5.484,-0.861 -11.149,-2.057 -15.625,-3.671 -4.217,-1.521 -9.4,-3.78 -12.273,-6.629 -2.551,-2.531 -2.264,-3.725 -2.249,-7.203 0.015,-3.281 0.001,-6.565 0.001,-9.847zm48.438 -104.751l6.695 0c12.139,0 36.262,4.98 44.803,13.48 1.949,1.94 3.116,2.893 4.43,5.415 1.116,2.145 1.961,4.195 1.961,7.49l0 92.15c0,7.324 -6.357,12.589 -11.49,15.682 -10.194,6.142 -26.355,9.29 -38.127,9.916 -1.884,0.101 -3.473,-0.121 -5.349,0.165 -2.18,0.332 -13.531,-0.315 -15.197,-0.493 -13.013,-1.395 -22.213,-2.671 -33.938,-8.593 -2.491,-1.259 -4.253,-2.64 -6.285,-4.347 -1.556,-1.308 -1.465,-0.996 -2.805,-2.71 -0.553,-0.708 -0.817,-0.852 -1.284,-1.472 -0.345,-0.457 -0.627,-1.042 -0.868,-1.494 -1.285,-2.401 -2.01,-4.994 -2.01,-8.624l0 -89.786c0,-3.004 0.948,-5.933 1.951,-7.894 0.816,-1.594 3.05,-4.195 4.516,-5.33 4.757,-3.683 5.803,-4.618 12.153,-7.142 14.73,-5.855 26.452,-6.376 40.844,-6.413zm-48.438 73.641c1.893,0.441 2.99,1.589 4.728,2.362 1.571,0.698 3.386,1.405 5.071,2.017 21.377,7.749 53.994,7.889 75.472,0.162l10.03 -4.541c0,15.542 3.33,18.166 -11.694,24.536 -7.839,3.324 -14.01,3.922 -22.05,5.122 -9.844,1.469 -25.531,0.716 -35.006,-1.075 -6.895,-1.304 -26.426,-5.834 -26.575,-14.381l0.024 -14.202zm0 -31.504c5.828,3.902 13.386,6.04 21.262,7.881 19.391,4.532 44.919,3.151 63.556,-3.005l7.853 -3.174c1.067,-0.612 1.361,-1.013 2.63,-1.308l0.025 14.202c-0.063,3.653 -3.487,6.151 -6.453,7.723 -21.136,11.198 -52.921,10.502 -75.93,2.938 -4.433,-1.458 -8.951,-4.021 -11.659,-7.243 -1.82,-2.167 -1.284,-4.479 -1.284,-8.169 0.001,-3.281 0,-6.563 0,-9.845zm0 -15.752c0,-5.848 13.843,-10.772 19.294,-12.211 4.112,-1.085 8.522,-1.85 13.214,-2.538l14.739 -1.018 14.869 0.908c8.183,1.007 26.1,4.525 31.74,11.578 6.144,7.685 -11.893,13.621 -17.851,15.096 -4.785,1.184 -15.118,3.205 -20.472,3.156 -3.108,-0.029 -4.471,0.398 -7.489,0.398 -7.765,0 -21.013,-1.356 -28.099,-3.415 -4.577,-1.33 -19.945,-6.267 -19.945,-11.954z"/>
   <path class="fil0" d="M195.042 73.689c0,10.485 0.644,14.166 7.139,22.396 2.972,3.765 10.768,9.157 14.914,9.502 0.169,-3.322 0.792,-9.549 0.144,-12.353 -0.391,-1.693 -0.222,-1.226 -1.458,-2.086 -5.641,-3.926 -7.744,-7.596 -7.744,-15.097 0,-12.531 15.944,-26.007 28.461,-13.102 8.884,9.158 5.689,24.214 -1.35,28.794 -4.77,3.104 -3.876,1.502 -3.876,-6.24l-10.633 0 0 28.747 11.42 0 0 -7.482c11.901,-0.99 22.841,-14.702 22.841,-29.535 0,-5.399 -0.652,-9.071 -2.413,-13.733l-3.826 -6.807c-7.904,-10.469 -22.47,-13.254 -34.664,-8.943 -3.204,1.132 -6.79,3.408 -9.217,5.748 -2.54,2.449 -4.877,5.317 -6.457,8.507 -1.608,3.243 -3.281,7.097 -3.281,11.684z"/>
   <path class="fil0" d="M153.693 56.755c0,5.488 0.211,8.32 3.458,13.476 1.935,3.073 2.724,3.373 4.691,5.548 2.307,2.551 8.306,7.514 10.921,9.556 0.908,0.708 1.113,0.797 1.914,1.631 1.053,1.095 2.644,2.807 2.644,4.444 0,4.275 -20.953,2.363 -23.235,2.363l0 11.814 20.085 0c6.874,0 15.751,-6.134 15.751,-13.784 0,-5.343 -0.461,-7.223 -3.766,-11.592 -2.46,-3.252 -1.658,-2.553 -4.561,-4.889l-12.603 -10.238c-6.2,-4.915 -0.29,-7.147 3.997,-7.147 3.563,0 8.694,-0.187 11.945,0.309 3.958,0.604 3.019,0.148 3.019,-10.154 0,-0.908 -0.274,-1.182 -1.181,-1.182l-19.296 0c-6.162,0 -13.783,3.957 -13.783,9.845z"/>
   <path class="fil0" d="M260.019 92.591c0,4.502 3.041,9.604 6.206,11.515 4.084,2.466 15.264,1.481 21.754,1.481 0,-14.937 1.129,-13.076 -4.333,-12.994 -2.207,0.033 -3.532,-0.108 -5.467,-0.441 -2.886,-0.496 -5.165,-3.22 -5.165,-6.649l0 -38.593 -12.995 0 0 45.681z"/>
  </g>
 </g>
</svg>
